<svg xmlns="http://www.w3.org/2000/svg" width="819.609" height="414.12"><path d="M499.293 300.518a149.341 149.341 0 0 1-33.989-3.901c-8.074 34.461-28.114 64.311-55.5 84.933 24.913 18.759 55.9 29.883 89.488 29.883 82.244 0 148.916-66.672 148.916-148.916 0-19.602-3.795-38.316-10.678-55.458-21.995 54.778-75.595 93.459-138.237 93.459z" fill="#75dfd3"/><path d="M354.305 296.618a149.334 149.334 0 0 1-33.989 3.901c-62.642 0-116.242-38.682-138.238-93.458-6.883 17.141-10.678 35.855-10.678 55.458 0 82.244 66.672 148.916 148.916 148.916 33.588 0 64.576-11.124 89.488-29.883-27.385-20.623-47.425-50.474-55.499-84.934z" fill="#64c7e5"/><path d="M465.304 296.618c-20.44-4.772-39.26-13.754-55.5-25.982-16.239 12.228-35.06 21.21-55.5 25.982 8.074 34.461 28.114 64.311 55.5 84.933 27.387-20.622 47.427-50.473 55.5-84.933z" fill="#64eaf1"/><path d="M320.316 113.601c11.694 0 23.071 1.352 33.989 3.901 8.074-34.461 28.114-64.311 55.5-84.933-24.913-18.759-55.901-29.883-89.489-29.883-82.244 0-148.916 66.672-148.916 148.916 0 19.602 3.795 38.316 10.678 55.458 21.996-54.777 75.597-93.459 138.238-93.459z" fill="#f889e8"/><path d="M320.316 300.518c11.694 0 23.071-1.352 33.989-3.901a149.317 149.317 0 0 1-3.928-34.1c0-19.602 3.795-38.316 10.678-55.458-6.883-17.141-10.678-35.855-10.678-55.458 0-11.734 1.362-23.149 3.928-34.1a149.334 149.334 0 0 0-33.989-3.901c-62.642 0-116.242 38.682-138.238 93.458 21.996 54.779 75.597 93.46 138.238 93.46z" fill="#f294f7"/><path d="M465.304 117.502a149.334 149.334 0 0 1 33.989-3.901c62.642 0 116.242 38.682 138.238 93.458 6.883-17.141 10.678-35.855 10.678-55.458 0-82.244-66.672-148.916-148.916-148.916-33.588 0-64.575 11.124-89.488 29.883 27.386 20.623 47.426 50.473 55.499 84.934z" fill="#ffc567"/><path d="M499.293 113.601a149.341 149.341 0 0 0-33.989 3.901 149.317 149.317 0 0 1 3.928 34.1c0 19.602-3.795 38.316-10.678 55.458 6.883 17.141 10.678 35.855 10.678 55.458 0 11.734-1.362 23.149-3.928 34.1a149.334 149.334 0 0 0 33.989 3.901c62.642 0 116.242-38.682 138.238-93.458-21.996-54.778-75.596-93.46-138.238-93.46z" fill="#ffe967"/><path d="M458.554 207.06c-10.202 25.406-27.2 47.349-48.749 63.575 16.239 12.228 35.059 21.21 55.5 25.982a149.317 149.317 0 0 0 3.928-34.1c-.001-19.602-3.796-38.316-10.679-55.457z" fill="#fff067"/><path d="M354.305 117.502c20.44 4.772 39.26 13.754 55.5 25.982 16.239-12.228 35.059-21.21 55.5-25.982-8.074-34.461-28.114-64.311-55.5-84.933-27.386 20.622-47.426 50.472-55.5 84.933z" fill="#ffa866"/><path d="M458.554 207.06c6.883-17.141 10.678-35.855 10.678-55.458 0-11.734-1.362-23.149-3.928-34.1-20.44 4.772-39.26 13.754-55.5 25.982 21.551 16.227 38.548 38.17 48.75 63.576z" fill="#fb6"/><path d="M409.805 143.484c-16.239-12.228-35.06-21.21-55.5-25.982a149.317 149.317 0 0 0-3.928 34.1c0 19.602 3.795 38.316 10.678 55.458 10.202-25.406 27.2-47.349 48.75-63.576z" fill="#ffb266"/><ellipse cx="409.805" cy="207.06" rx="48.749" ry="63.575" fill="#ffbe66"/><path d="M361.055 207.06c-6.883 17.141-10.678 35.855-10.678 55.458 0 11.734 1.362 23.149 3.928 34.1 20.44-4.772 39.26-13.754 55.5-25.982-21.55-16.228-38.548-38.17-48.75-63.576z" fill="#f2a5fb"/><path d="M391.632 187.377h3.648c3.074 0 5.199 2.11 5.199 4.864v.028c0 2.753-2.125 4.892-5.199 4.892h-3.648v-9.784zm1.72 1.565v6.653h1.929c2.055 0 3.396-1.384 3.396-3.299v-.027c0-1.915-1.342-3.327-3.396-3.327h-1.929zM405.342 187.307h1.593l4.305 9.854h-1.816l-.992-2.362h-4.627l-1.006 2.362h-1.762l4.305-9.854zm2.46 5.968l-1.691-3.913-1.678 3.913h3.369zM414.061 188.97h-3.103v-1.594h7.938v1.594h-3.103v8.19h-1.733v-8.19zM422.92 187.307h1.593l4.305 9.854h-1.816l-.992-2.362h-4.627l-1.006 2.362h-1.762l4.305-9.854zm2.46 5.968l-1.691-3.913-1.678 3.913h3.369zM372.726 212.504l1.035-1.229c.936.811 1.887 1.271 3.089 1.271 1.062 0 1.732-.503 1.732-1.229v-.028c0-.699-.391-1.076-2.208-1.496-2.083-.503-3.257-1.117-3.257-2.921v-.027c0-1.678 1.397-2.838 3.341-2.838 1.426 0 2.558.434 3.55 1.23l-.922 1.3c-.881-.657-1.762-1.007-2.656-1.007-1.006 0-1.593.518-1.593 1.16v.028c0 .755.447 1.09 2.334 1.537 2.068.503 3.131 1.244 3.131 2.865v.028c0 1.831-1.439 2.921-3.494 2.921a6.028 6.028 0 0 1-4.082-1.565zM381.893 209.065v-.027c0-2.782 2.083-5.061 5.046-5.061 1.804 0 2.894.63 3.83 1.524l-1.104 1.271c-.782-.727-1.621-1.216-2.739-1.216-1.859 0-3.229 1.537-3.229 3.452v.028c0 1.914 1.355 3.466 3.229 3.466 1.202 0 1.971-.476 2.81-1.258l1.104 1.118c-1.02 1.062-2.138 1.733-3.969 1.733-2.853.002-4.978-2.22-4.978-5.03zM392.736 204.145h1.72v9.784h-1.72v-9.784zM397.068 204.145h7.254v1.538h-5.534v2.544h4.905v1.537h-4.905v2.628h5.604v1.537h-7.324v-9.784zM406.431 204.145h1.594l5.241 6.766v-6.766h1.691v9.784h-1.439l-5.396-6.961v6.961h-1.691v-9.784zM419.874 205.739h-3.104v-1.594h7.939v1.594h-3.103v8.19h-1.733v-8.19zM426.622 204.145h1.72v9.784h-1.72v-9.784zM430.297 212.504l1.035-1.229c.937.811 1.887 1.271 3.089 1.271 1.062 0 1.732-.503 1.732-1.229v-.028c0-.699-.391-1.076-2.208-1.496-2.083-.503-3.257-1.117-3.257-2.921v-.027c0-1.678 1.397-2.838 3.341-2.838 1.426 0 2.558.434 3.55 1.23l-.922 1.3c-.881-.657-1.762-1.007-2.656-1.007-1.006 0-1.593.518-1.593 1.16v.028c0 .755.447 1.09 2.334 1.537 2.068.503 3.131 1.244 3.131 2.865v.028c0 1.831-1.439 2.921-3.494 2.921a6.03 6.03 0 0 1-4.082-1.565zM442.092 205.739h-3.103v-1.594h7.938v1.594h-3.103v8.19h-1.733v-8.19z"/><g><path d="M481.128 63.204h1.571l2.555 3.97 2.555-3.97h1.571V71.6h-1.476v-6.021l-2.65 3.958h-.048l-2.627-3.935V71.6h-1.451v-8.396zM491.173 67.426v-.023c0-2.363 1.822-4.342 4.401-4.342 2.578 0 4.377 1.955 4.377 4.317v.024c0 2.362-1.822 4.341-4.401 4.341-2.578 0-4.377-1.954-4.377-4.317zm7.231 0v-.023c0-1.632-1.188-2.986-2.854-2.986s-2.83 1.331-2.83 2.962v.024c0 1.631 1.188 2.974 2.854 2.974s2.83-1.32 2.83-2.951zM501.744 63.204h3.131c2.639 0 4.461 1.812 4.461 4.174v.024c0 2.362-1.822 4.197-4.461 4.197h-3.131v-8.395zm1.476 1.344v5.708h1.655c1.763 0 2.914-1.187 2.914-2.83v-.023c0-1.644-1.151-2.854-2.914-2.854h-1.655zM511.128 63.204h6.225v1.319h-4.749v2.183h4.21v1.319h-4.21v2.255h4.81v1.32h-6.285v-8.396zM519.168 63.204h1.476v7.052h4.413V71.6h-5.889v-8.396zM526.68 63.204h1.476V71.6h-1.476v-8.396zM530.399 63.204h1.367l4.498 5.805v-5.805h1.451V71.6h-1.235l-4.63-5.973V71.6h-1.451v-8.396zM539.508 67.426v-.023c0-2.352 1.799-4.342 4.329-4.342 1.463 0 2.363.407 3.227 1.139l-.936 1.116c-.647-.552-1.283-.899-2.351-.899-1.548 0-2.723 1.354-2.723 2.962v.024c0 1.727 1.14 2.998 2.854 2.998.791 0 1.511-.252 2.026-.636v-1.571h-2.146V66.91h3.574v3.526a5.357 5.357 0 0 1-3.502 1.307c-2.626 0-4.352-1.87-4.352-4.317zM552.323 70.376l.888-1.055c.804.695 1.619 1.091 2.65 1.091.911 0 1.487-.432 1.487-1.056v-.023c0-.6-.336-.924-1.895-1.283-1.787-.432-2.795-.96-2.795-2.507v-.024c0-1.438 1.199-2.435 2.866-2.435 1.224 0 2.195.372 3.047 1.056l-.792 1.115c-.756-.563-1.511-.863-2.278-.863-.864 0-1.367.443-1.367.995v.024c0 .647.384.936 2.003 1.319 1.774.432 2.687 1.067 2.687 2.458v.024c0 1.571-1.235 2.507-2.999 2.507a5.165 5.165 0 0 1-3.502-1.343zM560.567 63.204h1.476v4.222l3.994-4.222h1.822l-3.502 3.61 3.658 4.785h-1.799l-2.866-3.778-1.308 1.344V71.6h-1.476v-8.396zM569.363 63.204h1.476V71.6h-1.476v-8.396zM573.083 63.204h1.476v7.052h4.413V71.6h-5.889v-8.396zM580.511 63.204h1.476v7.052h4.413V71.6h-5.889v-8.396zM587.375 70.376l.888-1.055c.804.695 1.619 1.091 2.65 1.091.911 0 1.487-.432 1.487-1.056v-.023c0-.6-.336-.924-1.896-1.283-1.786-.432-2.794-.96-2.794-2.507v-.024c0-1.438 1.199-2.435 2.866-2.435 1.224 0 2.195.372 3.047 1.056l-.792 1.115c-.756-.563-1.511-.863-2.278-.863-.864 0-1.367.443-1.367.995v.024c0 .647.384.936 2.003 1.319 1.774.432 2.687 1.067 2.687 2.458v.024c0 1.571-1.235 2.507-2.999 2.507a5.165 5.165 0 0 1-3.502-1.343zM480.805 82.558c0-2.267 1.139-3.934 3.322-5.133l.636.972c-1.703 1.127-2.507 2.374-2.507 4.161s.804 3.022 2.507 4.162l-.636.972c-2.184-1.2-3.322-2.868-3.322-5.134zM486.42 77.605h1.571l2.555 3.97 2.555-3.97h1.571V86h-1.476v-6.02l-2.65 3.958h-.048l-2.627-3.935V86h-1.451v-8.395zM499.811 77.545h1.367L504.872 86h-1.56l-.852-2.027h-3.97L497.628 86h-1.512l3.695-8.455zm2.111 5.121l-1.451-3.358-1.439 3.358h2.89zM507.299 78.972h-2.663v-1.367h6.812v1.367h-2.662V86h-1.487v-7.028zM513.012 77.605h1.476v3.49h4.006v-3.49h1.475V86h-1.475v-3.538h-4.006V86h-1.476v-8.395zM530.434 85.029c-.72.672-1.56 1.092-2.567 1.092-1.57 0-2.746-.947-2.746-2.398v-.024c0-1.079.636-1.859 1.787-2.351-.479-.611-.695-1.14-.695-1.751v-.024c0-1.127.911-2.11 2.41-2.11 1.331 0 2.23.899 2.23 2.026v.024c0 1.104-.731 1.763-1.847 2.183l1.439 1.463c.323-.479.623-1.031.899-1.619l1.115.588c-.336.672-.707 1.331-1.14 1.907l1.332 1.343-1.104.792-1.113-1.141zm-.84-.864l-1.871-1.907c-.779.336-1.115.852-1.115 1.392v.023c0 .708.588 1.224 1.403 1.224.575 0 1.103-.276 1.583-.732zm-.048-4.569v-.024c0-.563-.396-.947-.947-.947-.601 0-1.008.42-1.008 1.008v.023c0 .42.168.731.636 1.247.863-.312 1.319-.707 1.319-1.307zM537.12 84.777l.888-1.055c.804.695 1.619 1.091 2.65 1.091.911 0 1.487-.432 1.487-1.056v-.023c0-.6-.336-.924-1.895-1.283-1.787-.432-2.795-.96-2.795-2.507v-.024c0-1.438 1.199-2.435 2.866-2.435 1.224 0 2.195.372 3.047 1.056l-.792 1.115c-.756-.563-1.511-.863-2.278-.863-.864 0-1.367.443-1.367.995v.024c0 .647.384.936 2.003 1.319 1.774.432 2.687 1.067 2.687 2.458v.024c0 1.571-1.235 2.507-2.999 2.507a5.175 5.175 0 0 1-3.502-1.343zM547.247 78.972h-2.663v-1.367h6.812v1.367h-2.662V86h-1.487v-7.028zM554.854 77.545h1.367L559.915 86h-1.56l-.852-2.027h-3.97L552.671 86h-1.512l3.695-8.455zm2.111 5.121l-1.451-3.358-1.439 3.358h2.89zM562.343 78.972h-2.663v-1.367h6.812v1.367h-2.662V86h-1.487v-7.028zM568.14 77.605h1.476V86h-1.476v-8.395zM571.296 84.777l.888-1.055c.804.695 1.619 1.091 2.65 1.091.911 0 1.487-.432 1.487-1.056v-.023c0-.6-.336-.924-1.895-1.283-1.787-.432-2.795-.96-2.795-2.507v-.024c0-1.438 1.199-2.435 2.866-2.435 1.224 0 2.195.372 3.047 1.056l-.792 1.115c-.756-.563-1.511-.863-2.278-.863-.864 0-1.367.443-1.367.995v.024c0 .647.384.936 2.003 1.319 1.774.432 2.687 1.067 2.687 2.458v.024c0 1.571-1.235 2.507-2.999 2.507a5.175 5.175 0 0 1-3.502-1.343zM581.423 78.972h-2.663v-1.367h6.812v1.367h-2.662V86h-1.487v-7.028zM587.219 77.605h1.476V86h-1.476v-8.395zM590.567 81.826v-.023c0-2.387 1.787-4.342 4.329-4.342 1.547 0 2.482.539 3.286 1.307l-.947 1.092c-.672-.624-1.392-1.043-2.351-1.043-1.596 0-2.771 1.318-2.771 2.962v.024c0 1.643 1.163 2.974 2.771 2.974 1.031 0 1.69-.407 2.41-1.079l.948.959c-.876.912-1.835 1.487-3.406 1.487-2.446 0-4.269-1.906-4.269-4.318zM599.231 84.777l.888-1.055c.804.695 1.619 1.091 2.65 1.091.911 0 1.487-.432 1.487-1.056v-.023c0-.6-.336-.924-1.895-1.283-1.787-.432-2.795-.96-2.795-2.507v-.024c0-1.438 1.199-2.435 2.866-2.435 1.224 0 2.195.372 3.047 1.056l-.792 1.115c-.756-.563-1.511-.863-2.278-.863-.864 0-1.367.443-1.367.995v.024c0 .647.384.936 2.003 1.319 1.774.432 2.687 1.067 2.687 2.458v.024c0 1.571-1.235 2.507-2.999 2.507a5.175 5.175 0 0 1-3.502-1.343zM606.972 86.72c1.702-1.14 2.506-2.375 2.506-4.162s-.804-3.034-2.506-4.161l.635-.972c2.184 1.199 3.322 2.866 3.322 5.133s-1.139 3.935-3.322 5.134l-.635-.972z"/></g><g><path d="M481.128 328.342h3.131c2.639 0 4.461 1.812 4.461 4.174v.024c0 2.362-1.822 4.197-4.461 4.197h-3.131v-8.395zm1.476 1.343v5.708h1.655c1.763 0 2.914-1.187 2.914-2.83v-.023c0-1.644-1.151-2.854-2.914-2.854h-1.655zM490.141 332.563v-.023c0-2.363 1.822-4.342 4.401-4.342 2.578 0 4.377 1.955 4.377 4.317v.024c0 2.362-1.822 4.341-4.401 4.341-2.579.001-4.377-1.953-4.377-4.317zm7.231 0v-.023c0-1.632-1.188-2.986-2.854-2.986s-2.83 1.331-2.83 2.962v.024c0 1.631 1.188 2.974 2.854 2.974s2.83-1.32 2.83-2.951zM500.712 328.342h1.571l2.555 3.97 2.555-3.97h1.571v8.396h-1.476v-6.021l-2.65 3.958h-.048l-2.627-3.935v5.997h-1.451v-8.395zM514.103 328.282h1.367l3.694 8.455h-1.56l-.852-2.027h-3.97l-.863 2.027h-1.512l3.696-8.455zm2.111 5.121l-1.451-3.358-1.439 3.358h2.89zM520.691 328.342h1.476v8.396h-1.476v-8.396zM524.411 328.342h1.367l4.498 5.805v-5.805h1.451v8.396h-1.235l-4.63-5.973v5.973h-1.451v-8.396zM537.49 328.342h1.476v4.222l3.994-4.222h1.822l-3.502 3.61 3.658 4.785h-1.799l-2.866-3.778-1.308 1.344v2.435h-1.476v-8.396zM546.202 328.342h1.367l4.498 5.805v-5.805h1.451v8.396h-1.235l-4.63-5.973v5.973h-1.451v-8.396zM555.311 332.563v-.023c0-2.363 1.822-4.342 4.401-4.342 2.578 0 4.377 1.955 4.377 4.317v.024c0 2.362-1.822 4.341-4.401 4.341-2.579.001-4.377-1.953-4.377-4.317zm7.231 0v-.023c0-1.632-1.188-2.986-2.854-2.986s-2.83 1.331-2.83 2.962v.024c0 1.631 1.188 2.974 2.854 2.974s2.83-1.32 2.83-2.951zM564.767 328.342h1.596l2.002 6.225 2.063-6.248h1.247l2.062 6.248 2.003-6.225h1.548l-2.915 8.455h-1.283l-2.062-6.032-2.062 6.032h-1.271l-2.928-8.455zM578.806 328.342h1.476v7.052h4.413v1.344h-5.889v-8.396zM586.233 328.342h6.225v1.319h-4.749v2.183h4.21v1.319h-4.21v2.255h4.81v1.319h-6.285v-8.395zM594.273 328.342h3.131c2.639 0 4.461 1.812 4.461 4.174v.024c0 2.362-1.822 4.197-4.461 4.197h-3.131v-8.395zm1.476 1.343v5.708h1.655c1.763 0 2.914-1.187 2.914-2.83v-.023c0-1.644-1.151-2.854-2.914-2.854h-1.655zM603.286 332.563v-.023c0-2.352 1.799-4.342 4.329-4.342 1.463 0 2.363.407 3.227 1.139l-.936 1.116c-.647-.552-1.283-.899-2.351-.899-1.548 0-2.723 1.354-2.723 2.962v.024c0 1.727 1.14 2.998 2.854 2.998.791 0 1.511-.252 2.026-.636v-1.571h-2.146v-1.283h3.574v3.526a5.357 5.357 0 0 1-3.502 1.307c-2.625 0-4.352-1.871-4.352-4.318zM613.065 328.342h6.225v1.319h-4.749v2.183h4.21v1.319h-4.21v2.255h4.81v1.319h-6.285v-8.395zM485.83 350.166c-.72.672-1.56 1.092-2.567 1.092-1.57 0-2.746-.947-2.746-2.398v-.024c0-1.079.636-1.859 1.787-2.351-.479-.611-.695-1.14-.695-1.751v-.024c0-1.127.911-2.11 2.41-2.11 1.331 0 2.23.899 2.23 2.026v.024c0 1.104-.731 1.763-1.847 2.183l1.439 1.463c.323-.479.623-1.031.899-1.619l1.115.588c-.336.672-.707 1.331-1.14 1.907l1.332 1.343-1.104.792-1.113-1.141zm-.84-.864l-1.871-1.907c-.779.336-1.115.852-1.115 1.392v.023c0 .708.588 1.224 1.403 1.224.575 0 1.104-.275 1.583-.732zm-.048-4.569v-.024c0-.563-.396-.947-.947-.947-.601 0-1.008.42-1.008 1.008v.023c0 .42.168.731.636 1.247.863-.312 1.319-.707 1.319-1.307zM492.516 349.914l.888-1.055c.804.695 1.619 1.091 2.65 1.091.911 0 1.487-.432 1.487-1.056v-.023c0-.6-.336-.924-1.896-1.283-1.786-.432-2.794-.96-2.794-2.507v-.024c0-1.438 1.199-2.435 2.866-2.435 1.224 0 2.195.372 3.047 1.056l-.792 1.115c-.756-.563-1.511-.863-2.278-.863-.864 0-1.367.443-1.367.995v.024c0 .647.384.936 2.003 1.319 1.774.432 2.687 1.067 2.687 2.458v.024c0 1.571-1.235 2.507-2.999 2.507a5.167 5.167 0 0 1-3.502-1.343zM500.388 346.964v-.023c0-2.363 1.822-4.342 4.401-4.342 2.578 0 4.377 1.955 4.377 4.317v.024c0 2.362-1.822 4.341-4.401 4.341-2.578 0-4.377-1.954-4.377-4.317zm7.231 0v-.023c0-1.632-1.188-2.986-2.854-2.986s-2.83 1.331-2.83 2.962v.024c0 1.631 1.188 2.974 2.854 2.974s2.83-1.321 2.83-2.951zM510.959 342.742h6.249v1.344h-4.773v2.29h4.233v1.344h-4.233v3.418h-1.476v-8.396zM520.895 344.109h-2.663v-1.367h6.812v1.367h-2.662v7.028h-1.487v-7.028zM529.644 349.914l.888-1.055c.804.695 1.619 1.091 2.65 1.091.911 0 1.487-.432 1.487-1.056v-.023c0-.6-.336-.924-1.895-1.283-1.787-.432-2.795-.96-2.795-2.507v-.024c0-1.438 1.199-2.435 2.866-2.435 1.224 0 2.195.372 3.047 1.056l-.792 1.115c-.756-.563-1.511-.863-2.278-.863-.864 0-1.367.443-1.367.995v.024c0 .647.384.936 2.003 1.319 1.774.432 2.687 1.067 2.687 2.458v.024c0 1.571-1.235 2.507-2.999 2.507a5.167 5.167 0 0 1-3.502-1.343zM537.887 342.742h1.476v4.222l3.994-4.222h1.822l-3.502 3.61 3.658 4.785h-1.799l-2.866-3.778-1.308 1.344v2.435h-1.476v-8.396zM546.683 342.742h1.476v8.396h-1.476v-8.396zM550.402 342.742h1.476v7.052h4.413v1.344h-5.889v-8.396zM557.83 342.742h1.476v7.052h4.413v1.344h-5.889v-8.396zM564.694 349.914l.888-1.055c.804.695 1.619 1.091 2.65 1.091.911 0 1.487-.432 1.487-1.056v-.023c0-.6-.336-.924-1.895-1.283-1.787-.432-2.795-.96-2.795-2.507v-.024c0-1.438 1.199-2.435 2.866-2.435 1.224 0 2.195.372 3.047 1.056l-.792 1.115c-.756-.563-1.511-.863-2.278-.863-.864 0-1.367.443-1.367.995v.024c0 .647.384.936 2.003 1.319 1.774.432 2.687 1.067 2.687 2.458v.024c0 1.571-1.235 2.507-2.999 2.507a5.17 5.17 0 0 1-3.502-1.343z"/></g><g><path d="M276.106 67.426v-.023c0-2.387 1.787-4.342 4.329-4.342 1.547 0 2.482.539 3.286 1.307l-.947 1.092c-.672-.624-1.392-1.043-2.351-1.043-1.596 0-2.771 1.318-2.771 2.962v.024c0 1.643 1.163 2.974 2.771 2.974 1.031 0 1.69-.407 2.41-1.079l.948.959c-.876.912-1.835 1.487-3.406 1.487-2.447-.001-4.269-1.907-4.269-4.318zM284.722 67.426v-.023c0-2.363 1.822-4.342 4.401-4.342 2.578 0 4.377 1.955 4.377 4.317v.024c0 2.362-1.822 4.341-4.401 4.341-2.578 0-4.377-1.954-4.377-4.317zm7.232 0v-.023c0-1.632-1.188-2.986-2.854-2.986s-2.83 1.331-2.83 2.962v.024c0 1.631 1.188 2.974 2.854 2.974s2.83-1.32 2.83-2.951zM295.292 63.204h3.131c2.639 0 4.461 1.812 4.461 4.174v.024c0 2.362-1.822 4.197-4.461 4.197h-3.131v-8.395zm1.476 1.344v5.708h1.655c1.763 0 2.914-1.187 2.914-2.83v-.023c0-1.644-1.151-2.854-2.914-2.854h-1.655zM304.761 63.204h1.476V71.6h-1.476v-8.396zM308.481 63.204h1.367l4.498 5.805v-5.805h1.451V71.6h-1.235l-4.63-5.973V71.6h-1.451v-8.396zM317.59 67.426v-.023c0-2.352 1.799-4.342 4.329-4.342 1.463 0 2.363.407 3.227 1.139l-.936 1.116c-.647-.552-1.283-.899-2.351-.899-1.548 0-2.723 1.354-2.723 2.962v.024c0 1.727 1.14 2.998 2.854 2.998.791 0 1.511-.252 2.026-.636v-1.571h-2.146V66.91h3.574v3.526a5.357 5.357 0 0 1-3.502 1.307c-2.626 0-4.352-1.87-4.352-4.317zM335.671 70.628c-.72.672-1.56 1.092-2.567 1.092-1.57 0-2.746-.947-2.746-2.398v-.024c0-1.079.636-1.859 1.787-2.351-.479-.611-.695-1.14-.695-1.751v-.024c0-1.127.911-2.11 2.41-2.11 1.331 0 2.23.899 2.23 2.026v.024c0 1.104-.731 1.763-1.847 2.183l1.439 1.463c.323-.479.623-1.031.899-1.619l1.115.588c-.336.672-.708 1.331-1.14 1.907l1.332 1.343-1.104.792-1.113-1.141zm-.84-.863l-1.871-1.907c-.779.336-1.115.852-1.115 1.392v.023c0 .708.588 1.224 1.403 1.224.575-.001 1.104-.276 1.583-.732zm-.048-4.569v-.024c0-.563-.396-.947-.947-.947-.601 0-1.008.42-1.008 1.008v.023c0 .42.168.731.636 1.247.863-.312 1.319-.708 1.319-1.307zM259.618 77.605h3.131c2.639 0 4.461 1.812 4.461 4.174v.024c0 2.362-1.822 4.197-4.461 4.197h-3.131v-8.395zm1.475 1.343v5.708h1.655c1.763 0 2.914-1.187 2.914-2.83v-.023c0-1.644-1.151-2.854-2.914-2.854h-1.655zM271.388 77.545h1.367L276.45 86h-1.56l-.852-2.027h-3.97L269.206 86h-1.512l3.694-8.455zm2.112 5.121l-1.451-3.358-1.439 3.358h2.89zM278.877 78.972h-2.663v-1.367h6.812v1.367h-2.662V86h-1.487v-7.028zM286.484 77.545h1.367L291.545 86h-1.56l-.852-2.027h-3.97L284.301 86h-1.512l3.695-8.455zm2.111 5.121l-1.451-3.358-1.439 3.358h2.89zM296.026 84.777l.888-1.055c.804.695 1.619 1.091 2.65 1.091.911 0 1.487-.432 1.487-1.056v-.023c0-.6-.336-.924-1.895-1.283-1.787-.432-2.795-.96-2.795-2.507v-.024c0-1.438 1.199-2.435 2.866-2.435 1.224 0 2.195.372 3.047 1.056l-.792 1.115c-.756-.563-1.511-.863-2.278-.863-.864 0-1.367.443-1.367.995v.024c0 .647.384.936 2.003 1.319 1.774.432 2.687 1.067 2.687 2.458v.024c0 1.571-1.235 2.507-2.999 2.507a5.175 5.175 0 0 1-3.502-1.343zM304.269 77.605h1.476v4.222l3.995-4.222h1.822l-3.502 3.61L311.718 86h-1.799l-2.866-3.778-1.308 1.344V86h-1.476v-8.395zM313.065 77.605h1.476V86h-1.476v-8.395zM316.786 77.605h1.476v7.052h4.413V86h-5.889v-8.395zM324.214 77.605h1.476v7.052h4.413V86h-5.889v-8.395zM331.078 84.777l.888-1.055c.804.695 1.619 1.091 2.65 1.091.911 0 1.487-.432 1.487-1.056v-.023c0-.6-.336-.924-1.896-1.283-1.786-.432-2.794-.96-2.794-2.507v-.024c0-1.438 1.199-2.435 2.866-2.435 1.224 0 2.195.372 3.047 1.056l-.792 1.115c-.756-.563-1.511-.863-2.278-.863-.864 0-1.367.443-1.367.995v.024c0 .647.384.936 2.003 1.319 1.774.432 2.687 1.067 2.687 2.458v.024c0 1.571-1.235 2.507-2.999 2.507a5.175 5.175 0 0 1-3.502-1.343z"/></g><g><path d="M228.418 332.563v-.023c0-2.387 1.787-4.342 4.33-4.342 1.547 0 2.483.539 3.287 1.307l-.948 1.092c-.671-.624-1.391-1.043-2.35-1.043-1.595 0-2.771 1.318-2.771 2.962v.024c0 1.643 1.163 2.974 2.771 2.974 1.031 0 1.691-.407 2.411-1.079l.947.959c-.875.912-1.835 1.487-3.406 1.487-2.447 0-4.271-1.907-4.271-4.318zM237.035 332.563v-.023c0-2.363 1.822-4.342 4.401-4.342 2.578 0 4.377 1.955 4.377 4.317v.024c0 2.362-1.822 4.341-4.401 4.341-2.579.001-4.377-1.953-4.377-4.317zm7.231 0v-.023c0-1.632-1.188-2.986-2.854-2.986s-2.83 1.331-2.83 2.962v.024c0 1.631 1.188 2.974 2.854 2.974s2.83-1.32 2.83-2.951zM247.606 328.342h1.571l2.555 3.97 2.555-3.97h1.571v8.396h-1.476v-6.021l-2.65 3.958h-.048l-2.627-3.935v5.997h-1.451v-8.395zM258.022 328.342h1.571l2.555 3.97 2.555-3.97h1.571v8.396h-1.476v-6.021l-2.65 3.958h-.048l-2.627-3.935v5.997h-1.451v-8.395zM268.306 333.175v-4.833h1.476v4.773c0 1.56.804 2.387 2.123 2.387 1.307 0 2.11-.779 2.11-2.327v-4.833h1.476v4.762c0 2.507-1.416 3.766-3.61 3.766-2.183-.001-3.575-1.26-3.575-3.695zM277.522 328.342h1.367l4.498 5.805v-5.805h1.451v8.396h-1.235l-4.63-5.973v5.973h-1.451v-8.396zM287.085 328.342h1.476v8.396h-1.476v-8.396zM290.434 332.563v-.023c0-2.387 1.787-4.342 4.329-4.342 1.547 0 2.482.539 3.286 1.307l-.947 1.092c-.672-.624-1.392-1.043-2.351-1.043-1.596 0-2.771 1.318-2.771 2.962v.024c0 1.643 1.163 2.974 2.771 2.974 1.031 0 1.69-.407 2.41-1.079l.948.959c-.876.912-1.835 1.487-3.406 1.487-2.447 0-4.269-1.907-4.269-4.318zM302.635 328.282h1.367l3.695 8.455h-1.56l-.852-2.027h-3.97l-.863 2.027h-1.512l3.695-8.455zm2.112 5.121l-1.451-3.358-1.439 3.358h2.89zM310.124 329.709h-2.663v-1.367h6.812v1.367h-2.662v7.028h-1.487v-7.028zM315.922 328.342h1.476v8.396h-1.476v-8.396zM319.27 332.563v-.023c0-2.363 1.822-4.342 4.401-4.342 2.578 0 4.377 1.955 4.377 4.317v.024c0 2.362-1.822 4.341-4.401 4.341-2.579.001-4.377-1.953-4.377-4.317zm7.231 0v-.023c0-1.632-1.188-2.986-2.854-2.986s-2.83 1.331-2.83 2.962v.024c0 1.631 1.188 2.974 2.854 2.974s2.83-1.32 2.83-2.951zM329.842 328.342h1.367l4.498 5.805v-5.805h1.451v8.396h-1.235l-4.63-5.973v5.973h-1.451v-8.396zM234.008 350.166c-.72.672-1.56 1.092-2.567 1.092-1.571 0-2.747-.947-2.747-2.398v-.024c0-1.079.636-1.859 1.787-2.351-.48-.611-.696-1.14-.696-1.751v-.024c0-1.127.912-2.11 2.411-2.11 1.332 0 2.23.899 2.23 2.026v.024c0 1.104-.731 1.763-1.847 2.183l1.439 1.463c.323-.479.623-1.031.899-1.619l1.115.588c-.336.672-.708 1.331-1.14 1.907l1.332 1.343-1.104.792-1.112-1.141zm-.84-.864l-1.871-1.907c-.78.336-1.115.852-1.115 1.392v.023c0 .708.587 1.224 1.403 1.224.576 0 1.103-.275 1.583-.732zm-.047-4.569v-.024c0-.563-.396-.947-.948-.947-.6 0-1.007.42-1.007 1.008v.023c0 .42.168.731.636 1.247.863-.312 1.319-.707 1.319-1.307zM240.538 342.742h1.632l2.53 6.452 2.519-6.452h1.595l-3.478 8.455h-1.308l-3.49-8.455zM250.341 342.742h1.476v8.396h-1.476v-8.396zM253.498 349.914l.888-1.055c.804.695 1.619 1.091 2.65 1.091.911 0 1.487-.432 1.487-1.056v-.023c0-.6-.336-.924-1.896-1.283-1.786-.432-2.794-.96-2.794-2.507v-.024c0-1.438 1.199-2.435 2.866-2.435 1.224 0 2.195.372 3.047 1.056l-.792 1.115c-.756-.563-1.511-.863-2.278-.863-.864 0-1.367.443-1.367.995v.024c0 .647.384.936 2.003 1.319 1.774.432 2.687 1.067 2.687 2.458v.024c0 1.571-1.235 2.507-2.999 2.507a5.167 5.167 0 0 1-3.502-1.343zM261.609 347.575v-4.833h1.476v4.773c0 1.56.804 2.387 2.123 2.387 1.307 0 2.11-.779 2.11-2.327v-4.833h1.476v4.762c0 2.507-1.416 3.766-3.61 3.766-2.184-.001-3.575-1.26-3.575-3.695zM273.5 342.682h1.367l3.694 8.455h-1.56l-.852-2.027h-3.97l-.863 2.027h-1.512l3.696-8.455zm2.111 5.121l-1.451-3.358-1.439 3.358h2.89zM280.004 342.742h1.476v7.052h4.413v1.344h-5.889v-8.396zM287.516 342.742h1.476v8.396h-1.476v-8.396zM290.936 350.046l4.953-5.996h-4.797v-1.308h6.729v1.092l-4.966 5.996h4.966v1.308h-6.885v-1.092zM302.634 342.682h1.367l3.695 8.455h-1.56l-.852-2.027h-3.97l-.863 2.027h-1.512l3.695-8.455zm2.112 5.121l-1.451-3.358-1.439 3.358h2.89zM310.123 344.109h-2.663v-1.367h6.812v1.367h-2.662v7.028h-1.487v-7.028zM315.92 342.742h1.476v8.396h-1.476v-8.396zM319.269 346.964v-.023c0-2.363 1.822-4.342 4.401-4.342 2.578 0 4.377 1.955 4.377 4.317v.024c0 2.362-1.822 4.341-4.401 4.341-2.579 0-4.377-1.954-4.377-4.317zm7.231 0v-.023c0-1.632-1.188-2.986-2.854-2.986s-2.83 1.331-2.83 2.962v.024c0 1.631 1.188 2.974 2.854 2.974s2.83-1.321 2.83-2.951zM329.84 342.742h1.367l4.498 5.805v-5.805h1.451v8.396h-1.235l-4.63-5.973v5.973h-1.451v-8.396z"/></g></svg>